<svg xmlns="http://www.w3.org/2000/svg" xml:space="preserve" style="enable-background:new 0 0 271 270" viewBox="0 0 271 270"><path d="M135.3-.1h131.8c3.6 0 3.6 0 3.6 3.5v263c0 3.6 0 3.6-3.6 3.6H3.6c-3.6 0-3.7 0-3.7-3.6V3.4c0-3.6 0-3.6 3.6-3.6 43.9.1 87.8.1 131.8.1zm.1 23.2H26.9c-3.5 0-3.5 0-3.5 3.4v216.7c0 3.6 0 3.6 3.6 3.6h216.5c3.7 0 3.8 0 3.8-3.7V26.6c0-3.6 0-3.6-3.6-3.6-36.2.1-72.3.1-108.3.1z"/><path d="M108.5 96.4c35.9-.2 65.5 29.4 65.3 65.4-.2 36.1-30 65.1-65.4 64.9-35.6-.1-65.2-29-65.2-65.4 0-35.5 29.1-65 65.3-64.9z"/><path d="M160.1 52.5h55.7c3.5 0 3.5 0 3.5 3.4v111c0 3.4 0 3.4-3.5 3.4-7.3 0-14.7-.1-22 0-2.2 0-2.9-.6-2.7-2.9 1.4-24.8-6.5-46.4-23.8-64.2-9.7-10-21.4-17-34.9-21-9.4-2.7-19-4.2-28.8-3.4-1.9.1-2.3-.6-2.3-2.2 0-7.1.1-14.2 0-21.2 0-2.3.7-3 3-3 18.5.1 37.1.1 55.8.1z"/></svg>