<svg width="376" height="30" xmlns="http://www.w3.org/2000/svg"><path d="M5.592 24V8.424H.6V7.2h11.256v1.224H6.84V24Zm8.544 0V6.24h1.224v7.944l-.288.144q.288-.84.984-1.536.72-.696 1.704-1.128 1.008-.432 2.088-.432 1.416 0 2.4.528t1.488 1.632q.528 1.104.528 2.808V24H23.04v-7.752q0-1.368-.408-2.232-.384-.864-1.176-1.248-.768-.408-1.896-.384-.912 0-1.68.312-.768.288-1.344.768-.552.48-.864 1.008-.312.528-.312.984V24h-1.224zm19.056.24q-1.872 0-3.312-.84-1.416-.84-2.232-2.304-.792-1.464-.792-3.36 0-1.44.432-2.616.456-1.2 1.248-2.064.816-.888 1.944-1.344 1.128-.48 2.472-.48 1.2 0 2.208.432 1.032.408 1.776 1.176.768.768 1.152 1.848.408 1.08.36 2.4l-.024.792H27.696l-.192-1.056h9.984l-.288.408v-.6q0-1.248-.6-2.208-.576-.96-1.536-1.488-.936-.552-2.088-.552-1.512 0-2.616.672-1.104.648-1.704 1.848-.576 1.176-.576 2.784 0 1.608.648 2.832.672 1.2 1.824 1.896 1.176.672 2.736.672 1.128 0 2.088-.384.984-.384 1.848-1.2l.624.888q-.576.552-1.32.984-.744.408-1.608.624-.84.24-1.728.24zM48.144 24V7.2h7.08q1.848 0 3.384.624 1.536.6 2.64 1.728 1.104 1.104 1.704 2.664.6 1.536.6 3.384 0 1.872-.6 3.408-.6 1.536-1.704 2.664-1.104 1.104-2.64 1.728-1.512.6-3.384.6zm4.104-2.832-.528-.792h3.384q.984 0 1.776-.336t1.344-.96q.576-.648.864-1.512.312-.888.312-1.968t-.312-1.944q-.288-.888-.864-1.512-.552-.648-1.344-.984-.792-.336-1.776-.336h-3.456l.6-.744zM66.672 24V7.2h3.672l8.832 11.976-.792-.096q-.168-1.344-.288-2.496-.12-1.176-.168-2.448-.024-1.272-.024-2.928V7.2h3.984V24h-3.72L69 11.664l1.176.168q.168 1.464.264 2.424t.144 1.656q.048.672.072 1.272.024.576.024 1.296V24Zm17.304 0 6.648-16.8h3.48l6.6 16.8h-4.128l-3.192-8.52q-.168-.504-.384-1.08-.192-.576-.384-1.2t-.36-1.2q-.168-.576-.288-1.08l.696-.024q-.144.6-.312 1.176t-.36 1.152q-.192.576-.408 1.152-.192.552-.408 1.152L88.008 24zm3.168-3.216 1.296-3.12h7.68l1.296 3.12zm27.672 3.456q-1.872 0-3.336-.84-1.44-.864-2.28-2.328-.816-1.488-.816-3.384 0-1.872.816-3.312.84-1.464 2.28-2.304 1.464-.84 3.336-.84 1.896 0 3.336.84t2.256 2.304q.816 1.44.816 3.312 0 1.896-.816 3.384-.816 1.464-2.256 2.328-1.44.84-3.336.84zm0-1.152q1.512 0 2.688-.696 1.176-.696 1.824-1.92.672-1.224.672-2.784 0-1.56-.672-2.736-.648-1.2-1.824-1.872-1.176-.696-2.688-.696-1.512 0-2.688.696-1.176.672-1.848 1.872-.672 1.2-.672 2.736 0 1.56.672 2.784.672 1.224 1.848 1.92 1.176.696 2.688.696zm10.176.912V9.336q0-1.08.36-1.8t1.032-1.08q.672-.384 1.536-.384.816 0 1.416.288t.936.768l-.504.888q-.36-.432-.816-.6-.432-.168-.96-.168-.552 0-.96.216-.408.192-.624.648-.216.456-.216 1.248V24h-1.2zm-2.448-11.376v-1.152h7.056v1.152zm18.264 16.896 2.376-5.784.072.936-5.952-13.272h1.392l4.68 10.536q.168.336.264.6.096.264.168.504l-.36.12q.144-.336.264-.672.144-.36.264-.696l4.056-10.392h1.416l-5.208 12.792-2.088 5.328zm16.08-5.28q-1.872 0-3.336-.84-1.44-.864-2.28-2.328-.816-1.488-.816-3.384 0-1.872.816-3.312.84-1.464 2.28-2.304 1.464-.84 3.336-.84 1.896 0 3.336.84t2.256 2.304q.816 1.44.816 3.312 0 1.896-.816 3.384-.816 1.464-2.256 2.328-1.44.84-3.336.84zm0-1.152q1.512 0 2.688-.696 1.176-.696 1.824-1.92.672-1.224.672-2.784 0-1.56-.672-2.736-.648-1.2-1.824-1.872-1.176-.696-2.688-.696-1.512 0-2.688.696-1.176.672-1.848 1.872-.672 1.2-.672 2.736 0 1.56.672 2.784.672 1.224 1.848 1.92 1.176.696 2.688.696zm13.632 1.152q-1.416 0-2.424-.552t-1.56-1.656q-.528-1.104-.528-2.784V11.4h1.224v7.584q0 2.112.96 3.144.96 1.008 2.712 1.008.816 0 1.512-.312.696-.336 1.224-.816.552-.48.84-1.032.312-.576.312-1.056V11.4h1.224V24h-1.176l-.048-2.832.288-.12q-.288.864-.96 1.608-.672.72-1.608 1.152-.912.432-1.992.432zm8.904-.24V11.4h1.2l.024 3.384-.168-.312q.192-.84.744-1.56.552-.744 1.416-1.2.864-.48 1.944-.48.408 0 .768.072.384.048.624.144l-.336 1.296q-.36-.12-.72-.168-.336-.072-.624-.072-.84 0-1.512.336t-1.152.912q-.48.552-.72 1.224-.24.648-.24 1.32V24Zm20.304.24q-1.752 0-3.12-.84t-2.16-2.28q-.792-1.464-.792-3.36t.792-3.36q.816-1.464 2.16-2.304 1.368-.864 3.048-.864.96 0 1.824.336.888.312 1.608.864.744.552 1.2 1.296.48.72.576 1.512l-.336-.024V6.24h1.224V24h-1.224v-3.72l.288-.072q-.12.84-.6 1.584-.456.72-1.152 1.272-.672.528-1.536.864-.864.312-1.8.312zm.096-1.104q1.368 0 2.424-.672 1.08-.696 1.704-1.92.624-1.224.624-2.808 0-1.584-.624-2.808-.624-1.224-1.704-1.92-1.056-.696-2.448-.696-1.44 0-2.568.72-1.104.696-1.728 1.944-.624 1.224-.624 2.784 0 1.536.624 2.76.624 1.224 1.728 1.92 1.128.696 2.592.696zm9.72.864V11.4h1.224V24Zm.624-15.72q-.504 0-.768-.264-.264-.288-.264-.744t.264-.72q.264-.264.768-.264.456 0 .72.264.288.264.288.72 0 .432-.264.72-.24.288-.744.288zm9.864 21.408q-1.344 0-2.544-.456t-1.968-1.248l.48-.96q.72.696 1.776 1.104 1.056.408 2.232.408 1.344 0 2.424-.624 1.08-.6 1.704-1.776.648-1.152.648-2.784v-3.048h.24q-.24 1.128-.984 2.016-.744.864-1.824 1.392-1.056.528-2.256.528-1.776 0-3.168-.84-1.392-.84-2.184-2.28-.792-1.464-.792-3.36t.816-3.36q.816-1.464 2.184-2.304 1.368-.864 3.048-.864.768 0 1.464.216.72.192 1.344.552.624.36 1.128.864.504.48.84 1.056.336.576.456 1.176l-.312.024.024-3.72h1.176v12.024q0 1.464-.456 2.616-.432 1.176-1.248 1.968-.792.816-1.896 1.248-1.08.432-2.352.432zm0-6.6q1.392 0 2.448-.672 1.08-.696 1.704-1.896.624-1.224.624-2.784 0-1.56-.624-2.76-.6-1.2-1.704-1.896-1.08-.696-2.472-.696-1.44 0-2.568.696-1.128.696-1.776 1.92-.624 1.2-.624 2.76 0 1.536.624 2.736.648 1.2 1.776 1.896 1.152.696 2.592.696zM229.8 24V11.4h1.224V24Zm.624-15.72q-.504 0-.768-.264-.264-.288-.264-.744t.264-.72q.264-.264.768-.264.456 0 .72.264.288.264.288.72 0 .432-.264.72-.24.288-.744.288zM236.808 24V8.184h1.224V24Zm-3.144-11.424V11.4h7.728v1.176zM251.807 24v-8.592q0-1.392-.984-2.208-.96-.816-2.64-.816-1.248 0-2.304.528-1.056.528-1.848 1.536l-.816-.816q.984-1.2 2.256-1.8 1.296-.6 2.808-.6 1.44 0 2.472.48 1.056.456 1.608 1.368.552.912.552 2.184V24Zm-4.824.24q-1.224 0-2.184-.48-.96-.48-1.536-1.32-.552-.864-.552-2.016 0-.864.312-1.536.336-.696.984-1.128.648-.456 1.632-.696.984-.24 2.28-.24h4.416l-.096 1.056h-4.536q-.936 0-1.632.168-.696.168-1.2.504-.504.312-.768.792-.24.456-.24 1.08 0 .792.432 1.416.432.624 1.128.96.72.336 1.584.336 1.104 0 2.04-.384.96-.384 1.704-1.056.768-.696 1.224-1.608l.408.744q-.552.984-1.368 1.752-.816.768-1.848 1.224-1.032.432-2.184.432zm9.624-.24V6.24h1.2V24Zm17.233.24q-1.849 0-3.265-.84-1.416-.864-2.232-2.328-.816-1.488-.816-3.384 0-1.872.816-3.312.816-1.464 2.232-2.304 1.416-.84 3.264-.84 1.56 0 2.832.6 1.272.6 2.064 1.656l-.72.864q-.504-.6-1.152-1.032-.648-.456-1.416-.696-.744-.24-1.536-.24-1.512 0-2.688.696-1.152.672-1.824 1.872-.672 1.176-.696 2.736.024 1.56.696 2.784.672 1.224 1.848 1.944 1.176.696 2.664.696.816 0 1.536-.216.744-.24 1.368-.672.648-.456 1.176-1.056l.72.864q-.84 1.008-2.112 1.608-1.272.6-2.76.6zm12.815 0q-1.872 0-3.336-.84-1.44-.864-2.28-2.328-.816-1.488-.816-3.384 0-1.872.816-3.312.84-1.464 2.28-2.304 1.464-.84 3.336-.84 1.896 0 3.336.84t2.256 2.304q.816 1.44.816 3.312 0 1.896-.816 3.384-.816 1.464-2.256 2.328-1.44.84-3.336.84zm0-1.152q1.512 0 2.688-.696 1.176-.696 1.824-1.92.672-1.224.672-2.784 0-1.56-.672-2.736-.648-1.2-1.824-1.872-1.176-.696-2.688-.696-1.512 0-2.688.696-1.176.672-1.848 1.872-.672 1.2-.672 2.736 0 1.56.672 2.784.672 1.224 1.848 1.92 1.176.696 2.688.696zm9.048.912V11.4h1.2l.024 2.784-.288.168q.264-.84.96-1.536.72-.72 1.728-1.152 1.008-.432 2.088-.432 1.416 0 2.4.528t1.488 1.632q.528 1.104.528 2.808V24h-1.224v-7.752q0-1.368-.408-2.232-.384-.864-1.176-1.248-.768-.408-1.896-.384-.912 0-1.68.312-.768.288-1.344.768-.552.48-.864 1.008-.312.528-.312.984V24h-1.224zm15.457 0V8.184h1.223V24Zm-3.145-11.424V11.4h7.728v1.176zm15.312 11.664q-1.872 0-3.312-.84-1.416-.84-2.232-2.304-.792-1.464-.792-3.36 0-1.44.432-2.616.456-1.2 1.248-2.064.816-.888 1.944-1.344 1.128-.48 2.472-.48 1.2 0 2.208.432 1.032.408 1.776 1.176.768.768 1.152 1.848.408 1.08.36 2.4l-.024.792h-10.728l-.192-1.056h9.984l-.288.408v-.6q0-1.248-.6-2.208-.576-.96-1.536-1.488-.936-.552-2.088-.552-1.512 0-2.616.672-1.104.648-1.704 1.848-.576 1.176-.576 2.784 0 1.608.648 2.832.672 1.2 1.824 1.896 1.176.672 2.736.672 1.128 0 2.088-.384.984-.384 1.848-1.2l.624.888q-.576.552-1.32.984-.744.408-1.608.624-.84.24-1.728.24zm7.824-.24V11.4h1.2l.024 2.784-.288.168q.264-.84.96-1.536.72-.72 1.728-1.152 1.008-.432 2.088-.432 1.416 0 2.4.528t1.488 1.632q.528 1.104.528 2.808V24h-1.224v-7.752q0-1.368-.408-2.232-.384-.864-1.176-1.248-.768-.408-1.896-.384-.912 0-1.68.312-.768.288-1.344.768-.552.48-.864 1.008-.312.528-.312.984V24h-1.224zm15.456 0V8.184h1.224V24Zm-3.144-11.424V11.4h7.728v1.176z" aria-label="The DNA of your digital content"/></svg>