<svg width="250" height="58" xmlns="http://www.w3.org/2000/svg"><path d="M165.657 22v-1.161h1.053v-3.978h-1.053V15.7h3.447v1.161h-1.044v3.978h1.044V22Zm4.923 0v-6.3h1.206l3.492 4.716h-.243q-.063-.459-.108-.909-.045-.459-.063-.972-.009-.513-.009-1.143V15.7h1.314V22h-1.224l-3.555-4.743h.324q.063.594.099.981.036.387.054.648.018.252.027.45.009.198.009.414V22Zm8.532 0v-5.085h-1.818V15.7h5.058v1.215h-1.89V22Zm4.356 0v-6.3h4.248v1.188h-2.925v3.924h2.988V22Zm.63-2.637v-1.152h3.186v1.152zM189.183 22v-6.3h2.79q.594 0 1.062.261.477.261.756.72.279.45.279 1.035 0 .567-.279 1.026-.279.459-.756.729-.468.27-1.062.27h-1.494V22Zm3.582 0-1.602-2.853 1.377-.225 1.782 3.087zm-2.286-3.366h1.44q.243 0 .423-.108.189-.117.288-.315.108-.198.108-.45 0-.261-.126-.459-.126-.207-.351-.315-.225-.117-.522-.117h-1.26zM195.492 22v-6.3h1.206l3.492 4.716h-.243q-.063-.459-.108-.909-.045-.459-.063-.972-.009-.513-.009-1.143V15.7h1.314V22h-1.224l-3.555-4.743h.324q.063.594.099.981.036.387.054.648.018.252.027.45.009.198.009.414V22Zm6.48 0 2.475-6.3h1.206l2.457 6.3h-1.377l-1.278-3.393-.135-.378-.153-.477-.153-.477q-.063-.234-.108-.378l.243-.009q-.054.198-.126.423-.063.216-.144.45-.072.234-.153.45-.072.216-.144.414L203.313 22Zm1.152-1.323.45-1.098h2.871l.459 1.098zM209.856 22v-5.085h-1.818V15.7h5.058v1.215h-1.89V22Zm4.194 0v-1.161h1.053v-3.978h-1.053V15.7h3.447v1.161h-1.044v3.978h1.044V22Zm7.578.09q-.693 0-1.287-.243-.585-.243-1.017-.675-.423-.441-.666-1.035-.234-.594-.234-1.305 0-.702.234-1.296.243-.594.666-1.035.432-.441 1.017-.684.594-.243 1.287-.243t1.269.243q.585.243 1.017.684.432.441.666 1.044.243.594.243 1.287 0 .702-.243 1.296-.234.594-.666 1.035-.432.441-1.017.684-.576.243-1.27.243zm0-1.278q.396 0 .729-.144.333-.153.576-.414.252-.27.387-.63t.135-.792q0-.423-.135-.783-.135-.36-.387-.63-.243-.27-.576-.414-.333-.153-.73-.153-.395 0-.737.153-.333.144-.585.414-.243.261-.378.63-.135.36-.135.792 0 .567.234 1.017.243.441.648.702.414.252.954.252zM226.047 22v-6.3h1.206l3.492 4.716h-.243q-.063-.459-.108-.909-.045-.459-.063-.972-.01-.513-.01-1.143V15.7h1.315V22h-1.224l-3.555-4.743h.324q.063.594.099.981.036.387.054.648.018.252.027.45.009.198.009.414V22Zm6.48 0 2.475-6.3h1.206l2.457 6.3h-1.377l-1.278-3.393-.135-.378-.153-.477-.153-.477q-.063-.234-.108-.378l.243-.009q-.054.198-.126.423-.063.216-.144.45-.072.234-.153.45-.072.216-.144.414L233.867 22Zm1.152-1.323.45-1.098h2.87l.46 1.098zM239.556 22v-6.3h1.35v5.085h2.853V22Zm-71.694 11.09q-.882 0-1.512-.315-.621-.324-1.071-.936l.846-.954q.441.612.873.837.441.216.945.216.279 0 .495-.081.225-.081.351-.225.135-.144.135-.333 0-.144-.063-.261-.063-.126-.18-.216-.117-.099-.279-.171-.162-.081-.36-.135-.198-.054-.432-.099-.504-.108-.882-.279-.378-.171-.63-.414-.252-.243-.378-.558-.117-.324-.117-.72 0-.558.315-.972.315-.423.837-.657.522-.243 1.152-.243.855 0 1.404.288.558.288.891.81l-.864.846q-.279-.387-.639-.585-.36-.198-.774-.198-.288 0-.513.081-.216.072-.333.225-.117.144-.117.342 0 .162.081.288.081.126.225.225.153.09.369.162.216.072.477.117.495.099.891.27.396.162.675.396.288.234.441.54.153.306.153.684 0 .639-.306 1.089-.306.45-.846.693-.54.243-1.26.243zm4.941-.09v-5.085h-1.818V26.7h5.058v1.215h-1.89V33Zm3.159 0 2.475-6.3h1.206L182.1 33h-1.377l-1.278-3.393-.135-.378-.153-.477-.153-.477q-.063-.234-.108-.378l.243-.009q-.054.198-.126.423-.063.216-.144.45-.072.234-.153.45-.072.216-.144.414L177.303 33zm1.152-1.323.45-1.098h2.871l.459 1.098zM182.991 33v-6.3h1.206l3.492 4.716h-.243q-.063-.459-.108-.909-.045-.459-.063-.972-.009-.513-.009-1.143V26.7h1.314V33h-1.224l-3.555-4.743h.324q.063.594.099.981.036.387.054.648.018.252.027.45.009.198.009.414V33Zm7.227 0v-6.3h2.592q.684 0 1.251.234.567.225.972.648.405.414.621.999.216.576.216 1.269 0 .702-.216 1.278-.216.576-.621.999-.405.414-.972.648-.558.225-1.251.225zm1.35-.99-.144-.225h1.341q.405 0 .72-.135.324-.135.549-.387.234-.261.351-.612.117-.36.117-.801 0-.441-.117-.792-.117-.36-.351-.612-.225-.261-.549-.396-.315-.135-.72-.135h-1.368l.171-.207zm4.599.99 2.475-6.3h1.206l2.457 6.3h-1.377l-1.278-3.393-.135-.378-.153-.477-.153-.477q-.063-.234-.108-.378l.243-.009q-.054.198-.126.423-.063.216-.144.45-.072.234-.153.45-.072.216-.144.414L197.508 33zm1.152-1.323.45-1.098h2.871l.459 1.098zM203.196 33v-6.3h2.79q.594 0 1.062.261.477.261.756.72.279.45.279 1.035 0 .567-.279 1.026-.279.459-.756.729-.468.27-1.062.27h-1.494V33Zm3.582 0-1.602-2.853 1.377-.225 1.782 3.087zm-2.286-3.366h1.44q.243 0 .423-.108.189-.117.288-.315.108-.198.108-.45 0-.261-.126-.459-.126-.207-.351-.315-.225-.117-.522-.117h-1.26zM209.505 33v-6.3h2.592q.684 0 1.251.234.567.225.972.648.405.414.621.999.216.576.216 1.269 0 .702-.216 1.278-.216.576-.621.999-.405.414-.972.648-.558.225-1.251.225zm1.35-.99-.144-.225h1.341q.405 0 .72-.135.324-.135.549-.387.234-.261.351-.612.117-.36.117-.801 0-.441-.117-.792-.117-.36-.351-.612-.225-.261-.549-.396-.315-.135-.72-.135h-1.368l.171-.207zm-42.282 12.08q-.693 0-1.278-.234-.576-.243-1.008-.675-.423-.441-.657-1.035-.225-.594-.225-1.305 0-.693.243-1.278.243-.594.684-1.035.441-.441 1.026-.684.594-.243 1.287-.243.45 0 .882.126.441.117.801.36.369.234.63.549l-.846.945q-.315-.342-.684-.522-.369-.18-.792-.18-.387 0-.729.144-.333.135-.585.396-.252.261-.396.621-.144.36-.144.801 0 .45.135.819.144.36.405.621.261.252.621.396.369.135.81.135.288 0 .549-.081.27-.081.504-.225.234-.144.414-.333l.657 1.053q-.207.243-.576.441t-.819.315q-.45.108-.909.108Zm6.228 0q-.693 0-1.287-.243-.585-.243-1.017-.675-.423-.441-.666-1.035-.234-.594-.234-1.305 0-.702.234-1.296.243-.594.666-1.035.432-.441 1.017-.684.594-.243 1.287-.243t1.269.243q.585.243 1.017.684.432.441.666 1.044.243.594.243 1.287 0 .702-.243 1.296-.234.594-.666 1.035-.432.441-1.017.684-.576.243-1.269.243zm0-1.278q.396 0 .729-.144.333-.153.576-.414.252-.27.387-.63t.135-.792q0-.423-.135-.783-.135-.36-.387-.63-.243-.27-.576-.414-.333-.153-.729-.153-.396 0-.738.153-.333.144-.585.414-.243.261-.378.63-.135.36-.135.792 0 .567.234 1.017.243.441.648.702.414.252.954.252zM179.22 44v-6.3h1.206l3.492 4.716h-.243q-.063-.459-.108-.909-.045-.459-.063-.972-.009-.513-.009-1.143V37.7h1.314V44h-1.224l-3.555-4.743h.324q.063.594.099.981.036.387.054.648.018.252.027.45.009.198.009.414V44Zm8.532 0v-5.085h-1.818V37.7h5.058v1.215h-1.89V44Zm4.356 0v-6.3h4.248v1.188h-2.925v3.924h2.988V44Zm.63-2.637v-1.152h3.186v1.152zM197.823 44v-6.3h1.206l3.492 4.716h-.243q-.063-.459-.108-.909-.045-.459-.063-.972-.009-.513-.009-1.143V37.7h1.314V44h-1.224l-3.555-4.743h.324q.063.594.099.981.036.387.054.648.018.252.027.45.009.198.009.414V44Zm8.532 0v-5.085h-1.818V37.7h5.058v1.215h-1.89V44Zm9.864.09q-.693 0-1.278-.234-.576-.243-1.008-.675-.423-.441-.657-1.035-.225-.594-.225-1.305 0-.693.243-1.278.243-.594.684-1.035.441-.441 1.026-.684.594-.243 1.287-.243.45 0 .882.126.441.117.801.36.369.234.63.549l-.846.945q-.315-.342-.684-.522-.369-.18-.792-.18-.387 0-.729.144-.333.135-.585.396-.252.261-.396.621-.144.36-.144.801 0 .45.135.819.144.36.405.621.261.252.621.396.369.135.81.135.288 0 .549-.081.27-.081.504-.225.234-.144.414-.333l.657 1.053q-.207.243-.576.441t-.819.315q-.45.108-.909.108zm6.228 0q-.693 0-1.287-.243-.585-.243-1.017-.675-.423-.441-.666-1.035-.234-.594-.234-1.305 0-.702.234-1.296.243-.594.666-1.035.432-.441 1.017-.684.594-.243 1.287-.243t1.269.243q.585.243 1.017.684.432.441.666 1.044.243.594.243 1.287 0 .702-.243 1.296-.234.594-.666 1.035-.432.441-1.017.684-.576.243-1.269.243zm0-1.278q.396 0 .729-.144.333-.153.576-.414.252-.27.387-.63t.135-.792q0-.423-.135-.783-.135-.36-.387-.63-.243-.27-.576-.414-.333-.153-.729-.153-.396 0-.738.153-.333.144-.585.414-.243.261-.378.63-.135.36-.135.792 0 .567.234 1.017.243.441.648.702.414.252.954.252zM226.866 44v-6.3h2.592q.684 0 1.25.234.568.225.973.648.405.414.62.999.217.576.217 1.269 0 .702-.216 1.278-.216.576-.621.999-.405.414-.972.648-.558.225-1.251.225zm1.35-.99-.144-.225h1.34q.406 0 .72-.135.325-.135.55-.387.234-.261.35-.612.118-.36.118-.801 0-.441-.117-.792-.117-.36-.351-.612-.225-.261-.55-.396-.314-.135-.72-.135h-1.367l.17-.207zm5.526.99v-6.3h4.248v1.188h-2.925v3.924h2.988V44Zm.63-2.637v-1.152h3.186v1.152z" aria-label="INTERNATIONALSTANDARDCONTENT CODE"/><path data-name="Pfad 4" d="M159.5 14v31.5" fill="none" stroke="#000" stroke-width="2"/><path d="M39.358 46v-5.934h5.382V19.734h-5.382V13.8h17.618v5.934H51.64v20.332h5.336V46Zm35.604.46q-4.508 0-7.728-1.61-3.174-1.656-5.474-4.784l4.324-4.876q2.254 3.128 4.462 4.278 2.254 1.104 4.83 1.104 1.426 0 2.53-.414 1.15-.414 1.794-1.15.69-.736.69-1.702 0-.736-.322-1.334-.322-.644-.92-1.104-.598-.506-1.426-.874-.828-.414-1.84-.69-1.012-.276-2.208-.506-2.576-.552-4.508-1.426-1.932-.874-3.22-2.116-1.288-1.242-1.932-2.852-.598-1.656-.598-3.68 0-2.852 1.61-4.968 1.61-2.162 4.278-3.358 2.668-1.242 5.888-1.242 4.37 0 7.176 1.472 2.852 1.472 4.554 4.14l-4.416 4.324q-1.426-1.978-3.266-2.99-1.84-1.012-3.956-1.012-1.472 0-2.622.414-1.104.368-1.702 1.15-.598.736-.598 1.748 0 .828.414 1.472t1.15 1.15q.782.46 1.886.828 1.104.368 2.438.598 2.53.506 4.554 1.38 2.024.828 3.45 2.024 1.472 1.196 2.254 2.76.782 1.564.782 3.496 0 3.266-1.564 5.566t-4.324 3.542q-2.76 1.242-6.44 1.242zm32.66 0q-3.542 0-6.532-1.196-2.944-1.242-5.152-3.45-2.162-2.254-3.358-5.29-1.15-3.036-1.15-6.67 0-3.542 1.242-6.532 1.242-3.036 3.496-5.29t5.244-3.496q3.036-1.242 6.578-1.242 2.3 0 4.508.644 2.254.598 4.094 1.84 1.886 1.196 3.22 2.806l-4.324 4.83q-1.61-1.748-3.496-2.668-1.886-.92-4.048-.92-1.978 0-3.726.736-1.702.69-2.99 2.024-1.288 1.334-2.024 3.174-.736 1.84-.736 4.094 0 2.3.69 4.186.736 1.84 2.07 3.174 1.334 1.288 3.174 2.024 1.886.69 4.14.69 1.472 0 2.806-.414 1.38-.414 2.576-1.15 1.196-.736 2.116-1.702l3.358 5.382q-1.058 1.242-2.944 2.254t-4.186 1.61q-2.3.552-4.646.552zm31.648 0q-3.542 0-6.532-1.196-2.944-1.242-5.152-3.45-2.162-2.254-3.358-5.29-1.15-3.036-1.15-6.67 0-3.542 1.242-6.532 1.242-3.036 3.496-5.29t5.244-3.496q3.036-1.242 6.578-1.242 2.3 0 4.508.644 2.254.598 4.094 1.84 1.886 1.196 3.22 2.806l-4.324 4.83q-1.61-1.748-3.496-2.668-1.886-.92-4.048-.92-1.978 0-3.726.736-1.702.69-2.99 2.024-1.288 1.334-2.024 3.174-.736 1.84-.736 4.094 0 2.3.69 4.186.736 1.84 2.07 3.174 1.334 1.288 3.174 2.024 1.886.69 4.14.69 1.472 0 2.806-.414 1.38-.414 2.576-1.15 1.196-.736 2.116-1.702l3.358 5.382q-1.058 1.242-2.944 2.254t-4.186 1.61q-2.3.552-4.646.552z" aria-label="ISCC"/><g data-name="Komponente 2 – 1"><path data-name="Differenzmenge 1" d="M34 39h-5.264A17.014 17.014 0 0 0 9 19.264V14h25z"/><path data-name="Pfad 6" d="M12 24A12 12 0 1 1 0 36a12 12 0 0 1 12-12Z"/></g></svg>